<svg xmlns="http://www.w3.org/2000/svg" width="225" height="35.74" viewBox="0 0 225 35.74"><polygon points="80.78 34.7 108.45 34.7 108.45 26.66 90.13 26.66 90.13 21.25 106.5 21.25 106.5 13.79 90.13 13.79 90.13 8.57 108.21 8.57 108.21 0.58 80.78 0.58 80.78 34.7" fill="#231f20"/><path d="M125.32,29.88a5.83,5.83,0,1,0-5.78,5.86,5.78,5.78,0,0,0,5.78-5.86" fill="#231f20"/><path d="M16,35.28c8.29,0,13.79-4.14,13.79-11.11v-.09c0-6.39-4.87-8.92-12.66-10.63-4.78-1.07-6-1.76-6-3.32V10c0-1.27,1.13-2.2,3.42-2.2a16.73,16.73,0,0,1,9.56,3.37l4.72-6.68c-3.7-3-8.23-4.53-14-4.53C6.62,0,1.61,4.58,1.61,10.91V11c0,7,5.6,9,12.86,10.68,4.68,1.12,5.81,1.85,5.81,3.31v.1c0,1.46-1.37,2.34-4,2.34A17.68,17.68,0,0,1,5.26,23.35L0,29.63a23.92,23.92,0,0,0,16,5.65" fill="#231f20"/><path d="M42.67,17.55v-9h4.49c3.37,0,5.46,1.52,5.46,4.44v.1c0,2.68-2.09,4.49-5.41,4.49ZM33.22,34.7h9.45V25H47.4C55.84,25,62,20.71,62,12.62v-.1C62,5,56.47.58,47.89.58H33.22Z" fill="#231f20"/><rect x="65.39" y="0.58" width="9.45" height="34.11" fill="#231f20"/><polygon points="143.84 0.61 140.33 6.25 136.88 0.69 136.83 0.61 133.3 0.61 133.3 14.65 136.61 14.65 136.61 6.17 140.16 11.56 140.43 11.56 144.02 6.12 144.02 14.65 147.37 14.65 147.37 0.61 143.84 0.61" fill="#f8951d"/><polygon points="153.57 11.63 153.57 9.1 160.04 9.1 160.04 6.07 153.57 6.07 153.57 3.64 160.92 3.64 160.92 0.61 150.23 0.61 150.23 14.65 161.02 14.65 161.02 11.63 153.57 11.63" fill="#f8951d"/><path d="M168.8.61h-5.52v14h5.52c4.32,0,7.46-3,7.46-7.06S173.12.61,168.8.61Zm-2.16,3.07h2.16a3.76,3.76,0,0,1,4,4,3.73,3.73,0,0,1-4,3.92h-2.16Z" fill="#f8951d"/><rect x="178.65" y="0.61" width="3.37" height="14.04" fill="#f8951d"/><path d="M195.33,10.09l-.12.11a4.78,4.78,0,0,1-3.49,1.56,3.89,3.89,0,0,1-3.8-4.17,3.86,3.86,0,0,1,3.8-4.09A4.86,4.86,0,0,1,195.11,5l.13.12,2.15-2.47-.12-.11A7.31,7.31,0,0,0,191.74.37a7.14,7.14,0,0,0-7.33,7.3,7.05,7.05,0,0,0,7.21,7.22,7.15,7.15,0,0,0,5.75-2.5l.12-.13Z" fill="#f8951d"/><path d="M207.17.51h-3l-5.93,13.9-.1.24h3.46l1.25-3.07h5.57l1.21,3,0,.11h3.53Zm0,8.06h-3.13l1.57-3.81Z" fill="#f8951d"/><polygon points="218.16 11.57 218.16 0.61 214.79 0.61 214.79 14.65 225 14.65 225 11.57 218.16 11.57" fill="#f8951d"/><rect x="133.44" y="20.64" width="3.37" height="14.04" fill="#f8951d"/><polygon points="150.35 20.64 146.84 26.28 143.38 20.72 143.33 20.64 139.8 20.64 139.8 34.68 143.11 34.68 143.11 26.2 146.67 31.59 146.93 31.59 150.53 26.14 150.53 34.68 153.87 34.68 153.87 20.64 150.35 20.64" fill="#f8951d"/><path d="M164.18,20.54h-3l-5.92,13.9-.1.24h3.45l1.26-3.07h5.56l1.22,3,0,.11h3.53Zm0,8.06h-3.12l1.56-3.81Z" fill="#f8951d"/><path d="M177.64,26.45V29.4h3v1.69a4.66,4.66,0,0,1-2.67.74,4,4,0,0,1-4-4.21,3.94,3.94,0,0,1,3.77-4.09,4.87,4.87,0,0,1,3.47,1.35l.13.11,2-2.42.12-.13-.14-.12a7.76,7.76,0,0,0-5.5-1.92,7.24,7.24,0,0,0-7.36,7.3,7.06,7.06,0,0,0,7.38,7.22,9,9,0,0,0,6-2.22l.06-.05v-6.2Z" fill="#f8951d"/><rect x="186.55" y="20.64" width="3.37" height="14.04" fill="#f8951d"/><polygon points="202.13 20.64 202.13 28.73 196.01 20.71 195.96 20.64 192.92 20.64 192.92 34.68 196.24 34.68 196.24 26.31 202.58 34.61 202.63 34.68 205.46 34.68 205.46 20.64 202.13 20.64" fill="#f8951d"/><path d="M214.82,26.45V29.4h3v1.69a4.66,4.66,0,0,1-2.67.74,4,4,0,0,1-4-4.21A3.94,3.94,0,0,1,215,23.53a4.85,4.85,0,0,1,3.47,1.35l.14.11,2-2.42.11-.13-.13-.12a7.79,7.79,0,0,0-5.51-1.92,7.24,7.24,0,0,0-7.36,7.3,7.06,7.06,0,0,0,7.39,7.22,9,9,0,0,0,6-2.22l.06-.05v-6.2Z" fill="#f8951d"/></svg>